name C:\Users\u0101727\Documents\MyRepositories\paper-ad\predictivesimulations_2d/Results/PredSim_2D/IK_c7.mot
datacolumns 11
datarows 30
range 0.00000000 0.27821218
endheader
time	pelvis_tilt	pelvis_tx	pelvis_ty	hip_flexion_l	hip_flexion_r	knee_angle_l	knee_angle_r	ankle_angle_l	ankle_angle_r	lumbar_extension	
          0.00000000	        -15.13130761	          0.00000000	          0.88365449	          0.95313744	         38.06486383	        -16.23144991	        -10.56826355	          5.76931769	         13.84080847	          9.63365814	
          0.00959352	        -15.09328254	          0.01477737	          0.88286817	          0.85942356	         37.58034866	        -17.72496139	         -9.96297989	          4.56880422	         13.39277875	          9.73051959	
          0.01918705	        -15.04420810	          0.02981818	          0.88203090	          0.84445773	         37.00063172	        -19.38597552	         -9.64371353	          3.26446141	         12.89265892	          9.84041964	
          0.02878057	        -14.98664396	          0.04510539	          0.88116610	          0.91546953	         36.25764001	        -21.21136567	         -9.73103543	          1.83631501	         12.33838926	          9.96733645	
          0.03837409	        -14.92880069	          0.06045315	          0.88040065	          1.07709002	         35.39453734	        -23.18255419	        -10.04526664	          0.36975207	         11.76930851	         10.10184271	
          0.04796762	        -14.88164662	          0.07552080	          0.87996396	          1.35617143	         34.53650958	        -25.20714760	        -10.32544760	         -0.91373188	         11.21933760	         10.22068989	
          0.05756114	        -14.85374417	          0.09006126	          0.88011772	          1.78097240	         33.72080839	        -27.14495411	        -10.58372441	         -1.91612670	         10.68834805	         10.30996763	
          0.06715466	        -14.84743987	          0.10401158	          0.88101772	          2.34739306	         32.94989878	        -28.93329106	        -10.81497825	         -2.66676560	         10.19099589	         10.36854054	
          0.07674819	        -14.85804538	          0.11745496	          0.88262324	          3.03866290	         32.20525527	        -30.59286017	        -11.00721446	         -3.17508692	          9.74356244	         10.40254806	
          0.08634171	        -14.87896577	          0.13051560	          0.88472458	          3.83424840	         31.46576015	        -32.15279253	        -11.15151040	         -3.45385583	          9.35753432	         10.41901110	
          0.09593523	        -14.90483780	          0.14330098	          0.88708917	          4.71859509	         30.71461186	        -33.63068958	        -11.24105433	         -3.51866589	          9.03918065	         10.42324574	
          0.10552876	        -14.93222451	          0.15588531	          0.88953433	          5.67967732	         29.94236732	        -35.03501185	        -11.27392900	         -3.38454930	          8.79010936	         10.41844883	
          0.11512228	        -14.95922975	          0.16831559	          0.89193643	          6.70848166	         29.14449178	        -36.36706899	        -11.25055934	         -3.06778655	          8.60928451	         10.40637475	
          0.12471581	        -14.98489267	          0.18062187	          0.89421624	          7.79760576	         28.31943879	        -37.62376747	        -11.17294851	         -2.58509881	          8.49405742	         10.38803366	
          0.13430933	        -15.00872531	          0.19282446	          0.89632337	          8.94087448	         27.46757531	        -38.80021482	        -11.04456416	         -1.95335494	          8.44069579	         10.36404224	
          0.14390285	        -15.03046064	          0.20493844	          0.89822539	         10.13274023	         26.59055038	        -39.89031345	        -10.87024423	         -1.18951876	          8.44465127	         10.33485177	
          0.15349638	        -15.04992648	          0.21697621	          0.89990131	         11.36783530	         25.69095990	        -40.88730508	        -10.65603113	         -0.31077167	          8.50076557	         10.30086926	
          0.16308990	        -15.06700033	          0.22894868	          0.90133851	         12.64074808	         24.77210590	        -41.78398761	        -10.40893609	          0.66549671	          8.60346081	         10.26251093	
          0.17268342	        -15.08159522	          0.24086534	          0.90253209	         13.94611544	         23.83796981	        -42.57275953	        -10.13696987	          1.72172849	          8.74692043	         10.22016782	
          0.18227695	        -15.09369442	          0.25273379	          0.90348532	         15.27891394	         22.89299800	        -43.24549317	         -9.84798233	          2.84026261	          8.92527527	         10.17415819	
          0.19187047	        -15.10342172	          0.26456133	          0.90420880	         16.63318621	         21.94108717	        -43.79464040	         -9.54901277	          4.00329295	          9.13205703	         10.12495699	
          0.20146399	        -15.11094073	          0.27635424	          0.90471948	         18.00307695	         20.98639783	        -44.21252163	         -9.24762796	          5.19296782	          9.35960008	         10.07299741	
          0.21105752	        -15.11639313	          0.28811800	          0.90503816	         19.38313431	         20.03350562	        -44.49128060	         -8.95165706	          6.39146077	          9.59985256	         10.01861710	
          0.22065104	        -15.11992489	          0.29985865	          0.90518622	         20.76683935	         19.08719655	        -44.62401943	         -8.66945381	          7.58096673	          9.84485891	          9.96219899	
          0.23024456	        -15.12175583	          0.31158323	          0.90518394	         22.14727133	         18.15071319	        -44.60512119	         -8.40666872	          8.74381296	         10.08726972	          9.90427602	
          0.23983809	        -15.12220240	          0.32330003	          0.90504945	         23.51757201	         17.22488821	        -44.43046841	         -8.16460020	          9.86263858	         10.32044245	          9.84558484	
          0.24943161	        -15.12154727	          0.33501787	          0.90479826	         24.86981502	         16.31112671	        -44.09810291	         -7.94605522	         10.92070790	         10.53759947	          9.78686424	
          0.25902513	        -15.12003487	          0.34674492	          0.90444349	         26.19605476	         15.41157715	        -43.60708623	         -7.75463996	         11.90257963	         10.73267423	          9.72873243	
          0.26861866	        -15.11790699	          0.35849025	          0.90399584	         27.48749011	         14.52780365	        -42.96042732	         -7.59336997	         12.79485259	         10.90104550	          9.67192415	
          0.27821218	        -15.11542255	          0.37026231	          0.90346441	         28.73610992	         13.66074424	        -42.16264982	         -7.46428653	         13.58729019	         11.03976123	          9.61713110	
